<mxfile host="app.diagrams.net" modified="2020-10-20T11:26:28.128Z" agent="5.0 (Windows NT 10.0; WOW64) AppleWebKit/537.36 (KHTML, like Gecko) Chrome/86.0.4240.75 Safari/537.36" etag="0tnJu88rlaR4IDt-RoLC" version="13.8.0" type="github">
  <diagram id="C5RBs43oDa-KdzZeNtuy" name="Page-1">
    <mxGraphModel dx="1037" dy="620" grid="1" gridSize="10" guides="1" tooltips="1" connect="1" arrows="1" fold="1" page="1" pageScale="1" pageWidth="827" pageHeight="1169" math="0" shadow="0">
      <root>
        <mxCell id="WIyWlLk6GJQsqaUBKTNV-0" />
        <mxCell id="WIyWlLk6GJQsqaUBKTNV-1" parent="WIyWlLk6GJQsqaUBKTNV-0" />
        <mxCell id="zkfFHV4jXpPFQw0GAbJ--0" value="user" style="swimlane;fontStyle=2;align=center;verticalAlign=top;childLayout=stackLayout;horizontal=1;startSize=26;horizontalStack=0;resizeParent=1;resizeLast=0;collapsible=1;marginBottom=0;rounded=0;shadow=0;strokeWidth=1;" parent="WIyWlLk6GJQsqaUBKTNV-1" vertex="1">
          <mxGeometry x="220" y="120" width="220" height="200" as="geometry">
            <mxRectangle x="220" y="120" width="160" height="26" as="alternateBounds" />
          </mxGeometry>
        </mxCell>
        <mxCell id="zkfFHV4jXpPFQw0GAbJ--1" value="- string name" style="text;align=left;verticalAlign=top;spacingLeft=4;spacingRight=4;overflow=hidden;rotatable=0;points=[[0,0.5],[1,0.5]];portConstraint=eastwest;" parent="zkfFHV4jXpPFQw0GAbJ--0" vertex="1">
          <mxGeometry y="26" width="220" height="26" as="geometry" />
        </mxCell>
        <mxCell id="zkfFHV4jXpPFQw0GAbJ--2" value="- string username" style="text;align=left;verticalAlign=top;spacingLeft=4;spacingRight=4;overflow=hidden;rotatable=0;points=[[0,0.5],[1,0.5]];portConstraint=eastwest;rounded=0;shadow=0;html=0;" parent="zkfFHV4jXpPFQw0GAbJ--0" vertex="1">
          <mxGeometry y="52" width="220" height="26" as="geometry" />
        </mxCell>
        <mxCell id="zkfFHV4jXpPFQw0GAbJ--3" value="- string password" style="text;align=left;verticalAlign=top;spacingLeft=4;spacingRight=4;overflow=hidden;rotatable=0;points=[[0,0.5],[1,0.5]];portConstraint=eastwest;rounded=0;shadow=0;html=0;" parent="zkfFHV4jXpPFQw0GAbJ--0" vertex="1">
          <mxGeometry y="78" width="220" height="22" as="geometry" />
        </mxCell>
        <mxCell id="zkfFHV4jXpPFQw0GAbJ--4" value="" style="line;html=1;strokeWidth=1;align=left;verticalAlign=middle;spacingTop=-1;spacingLeft=3;spacingRight=3;rotatable=0;labelPosition=right;points=[];portConstraint=eastwest;" parent="zkfFHV4jXpPFQw0GAbJ--0" vertex="1">
          <mxGeometry y="100" width="220" height="14" as="geometry" />
        </mxCell>
        <mxCell id="Sw8ZUtSiQkh7nKTKEAph-11" value="+ user(n:string, u:string, p: string);" style="text;html=1;align=left;verticalAlign=middle;resizable=0;points=[];autosize=1;rotation=0;" vertex="1" parent="zkfFHV4jXpPFQw0GAbJ--0">
          <mxGeometry y="114" width="220" height="20" as="geometry" />
        </mxCell>
        <mxCell id="Sw8ZUtSiQkh7nKTKEAph-15" value="post" style="swimlane;fontStyle=2;align=center;verticalAlign=top;childLayout=stackLayout;horizontal=1;startSize=26;horizontalStack=0;resizeParent=1;resizeLast=0;collapsible=1;marginBottom=0;rounded=0;shadow=0;strokeWidth=1;" vertex="1" parent="WIyWlLk6GJQsqaUBKTNV-1">
          <mxGeometry x="470" y="120" width="220" height="270" as="geometry">
            <mxRectangle x="220" y="120" width="160" height="26" as="alternateBounds" />
          </mxGeometry>
        </mxCell>
        <mxCell id="Sw8ZUtSiQkh7nKTKEAph-16" value="- string body" style="text;align=left;verticalAlign=top;spacingLeft=4;spacingRight=4;overflow=hidden;rotatable=0;points=[[0,0.5],[1,0.5]];portConstraint=eastwest;" vertex="1" parent="Sw8ZUtSiQkh7nKTKEAph-15">
          <mxGeometry y="26" width="220" height="26" as="geometry" />
        </mxCell>
        <mxCell id="Sw8ZUtSiQkh7nKTKEAph-17" value="- user author" style="text;align=left;verticalAlign=top;spacingLeft=4;spacingRight=4;overflow=hidden;rotatable=0;points=[[0,0.5],[1,0.5]];portConstraint=eastwest;rounded=0;shadow=0;html=0;" vertex="1" parent="Sw8ZUtSiQkh7nKTKEAph-15">
          <mxGeometry y="52" width="220" height="26" as="geometry" />
        </mxCell>
        <mxCell id="Sw8ZUtSiQkh7nKTKEAph-18" value="- string time" style="text;align=left;verticalAlign=top;spacingLeft=4;spacingRight=4;overflow=hidden;rotatable=0;points=[[0,0.5],[1,0.5]];portConstraint=eastwest;rounded=0;shadow=0;html=0;" vertex="1" parent="Sw8ZUtSiQkh7nKTKEAph-15">
          <mxGeometry y="78" width="220" height="22" as="geometry" />
        </mxCell>
        <mxCell id="Sw8ZUtSiQkh7nKTKEAph-24" value="&amp;nbsp;- int id" style="text;html=1;align=left;verticalAlign=middle;resizable=0;points=[];autosize=1;rotation=0;" vertex="1" parent="Sw8ZUtSiQkh7nKTKEAph-15">
          <mxGeometry y="100" width="220" height="20" as="geometry" />
        </mxCell>
        <mxCell id="Sw8ZUtSiQkh7nKTKEAph-19" value="" style="line;html=1;strokeWidth=1;align=left;verticalAlign=middle;spacingTop=-1;spacingLeft=3;spacingRight=3;rotatable=0;labelPosition=right;points=[];portConstraint=eastwest;" vertex="1" parent="Sw8ZUtSiQkh7nKTKEAph-15">
          <mxGeometry y="120" width="220" height="20" as="geometry" />
        </mxCell>
        <mxCell id="Sw8ZUtSiQkh7nKTKEAph-20" value="+ post(b:string, a:user, t: string);" style="text;html=1;align=left;verticalAlign=middle;resizable=0;points=[];autosize=1;rotation=0;" vertex="1" parent="Sw8ZUtSiQkh7nKTKEAph-15">
          <mxGeometry y="140" width="220" height="20" as="geometry" />
        </mxCell>
        <mxCell id="Sw8ZUtSiQkh7nKTKEAph-21" value="+ edit(b:string, a:user, t: string);" style="text;html=1;align=left;verticalAlign=middle;resizable=0;points=[];autosize=1;rotation=0;" vertex="1" parent="Sw8ZUtSiQkh7nKTKEAph-15">
          <mxGeometry y="160" width="220" height="20" as="geometry" />
        </mxCell>
      </root>
    </mxGraphModel>
  </diagram>
</mxfile>
